# xmcd CD database file
#
# Track frame offsets:
#	150
#	14657
#	24670
#	44745
#	56970
#	85197
#	100355
#	124367
#	151920
#	167987
#	183402
#	201190
#	221665
#	232037
#
# Disc length: 3255 seconds
#
# Revision: 2
# Processed by: cddbd v1.4b41PL1 Copyright (c) Steve Scherf et al.
# Submitted via: Feurio! 1.60 - http://www.feurio.com
#
DISCID=c10cb50e,d20cb50e
DTITLE=Glen Campell - Greatest Hits Live In Concert
DYEAR=1900
DGENRE=
TTITLE0=Rhinestone Cowboy
TTITLE1=Gentle On My Mind
TTITLE2=Medley
TTITLE3=By The Time I Get To
TTITLE4=Mull Of Kintyre
TTITLE5=Crying
TTITLE6=Blue Grass Medley
TTITLE7=Milk Cow Blues
TTITLE8=Rollin' (In My Sweet Baby Arms)
TTITLE9=I'm So Lonesome I Could Cry
TTITLE10=Southern Nights
TTITLE11=Amazing Grace
TTITLE12=Try A Little Kindness
TTITLE13=It's Only Make Believe
EXTD=Heinz
EXTT0=
EXTT1=
EXTT2=a) Wichita Lineman, b) Galveston, c) Country Boy
EXTT3=
EXTT4=
EXTT5=
EXTT6=
EXTT7=
EXTT8=
EXTT9=
EXTT10=
EXTT11=
EXTT12=
EXTT13=
PLAYORDER=
